<svg width="147" height="147" viewBox="0 0 147 147" fill="none" xmlns="http://www.w3.org/2000/svg">
<path d="M126.302 32.1562H119.463C119.456 32.1562 119.45 32.159 119.445 32.1638C119.44 32.1687 119.438 32.1752 119.438 32.1821V119.438C119.438 121.874 120.405 124.211 122.128 125.934C123.851 127.657 126.188 128.625 128.625 128.625C131.062 128.625 133.399 127.657 135.122 125.934C136.845 124.211 137.812 121.874 137.812 119.438V43.6665C137.812 40.6138 136.6 37.6861 134.441 35.5275C132.283 33.3689 129.355 32.1563 126.302 32.1562Z" fill="#FFC7C7"/>
<path d="M110.25 119.438V20.6719C110.25 19.1637 109.953 17.6703 109.376 16.277C108.799 14.8836 107.953 13.6176 106.886 12.5512C105.82 11.4848 104.554 10.6388 103.161 10.0617C101.767 9.48455 100.274 9.1875 98.7656 9.1875H20.6719C17.626 9.1875 14.7049 10.3975 12.5512 12.5512C10.3975 14.7049 9.1875 17.626 9.1875 20.6719V121.734C9.1875 125.999 10.8814 130.088 13.8967 133.103C16.9119 136.119 21.0014 137.813 25.2656 137.812H123.701C123.745 137.813 123.788 137.805 123.828 137.788C123.868 137.772 123.905 137.747 123.935 137.717C123.966 137.686 123.99 137.649 124.007 137.609C124.023 137.569 124.032 137.526 124.031 137.482C124.031 137.41 124.007 137.34 123.963 137.283C123.919 137.226 123.857 137.185 123.787 137.167C119.901 136.101 116.472 133.789 114.027 130.586C111.582 127.384 110.255 123.467 110.25 119.438ZM27.5625 36.75C27.5625 35.5317 28.0465 34.3632 28.908 33.5017C29.7695 32.6402 30.9379 32.1562 32.1562 32.1562H50.5312C51.7496 32.1562 52.918 32.6402 53.7795 33.5017C54.641 34.3632 55.125 35.5317 55.125 36.75V55.125C55.125 56.3433 54.641 57.5118 53.7795 58.3733C52.918 59.2348 51.7496 59.7188 50.5312 59.7188H32.1562C30.9379 59.7188 29.7695 59.2348 28.908 58.3733C28.0465 57.5118 27.5625 56.3433 27.5625 55.125V36.75ZM87.2812 114.844H32.2854C29.8134 114.844 27.6917 112.943 27.5682 110.471C27.5383 109.85 27.6348 109.229 27.8519 108.647C28.0689 108.064 28.402 107.531 28.831 107.081C29.26 106.631 29.7759 106.272 30.3475 106.028C30.9191 105.783 31.5344 105.656 32.1562 105.656H87.152C89.6241 105.656 91.7458 107.557 91.8693 110.029C91.8992 110.65 91.8027 111.271 91.5856 111.853C91.3686 112.436 91.0355 112.969 90.6065 113.419C90.1775 113.869 89.6616 114.228 89.09 114.472C88.5184 114.717 87.9031 114.844 87.2812 114.844ZM87.2812 96.4688H32.2854C29.8134 96.4688 27.6917 94.5681 27.5682 92.0961C27.5383 91.475 27.6348 90.8542 27.8519 90.2715C28.0689 89.6888 28.402 89.1562 28.831 88.706C29.26 88.2558 29.7759 87.8974 30.3475 87.6525C30.9191 87.4076 31.5344 87.2813 32.1562 87.2812H87.152C89.6241 87.2812 91.7458 89.1819 91.8693 91.6539C91.8992 92.275 91.8027 92.8958 91.5856 93.4785C91.3686 94.0612 91.0355 94.5938 90.6065 95.044C90.1775 95.4942 89.6616 95.8526 89.09 96.0975C88.5184 96.3424 87.9031 96.4687 87.2812 96.4688ZM87.2812 78.0938H32.2854C29.8134 78.0938 27.6917 76.1931 27.5682 73.7211C27.5383 73.1 27.6348 72.4792 27.8519 71.8965C28.0689 71.3138 28.402 70.7812 28.831 70.331C29.26 69.8808 29.7759 69.5224 30.3475 69.2775C30.9191 69.0326 31.5344 68.9063 32.1562 68.9062H87.152C89.6241 68.9062 91.7458 70.8069 91.8693 73.2789C91.8992 73.9 91.8027 74.5208 91.5856 75.1035C91.3686 75.6862 91.0355 76.2188 90.6065 76.669C90.1775 77.1192 89.6616 77.4776 89.09 77.7225C88.5184 77.9674 87.9031 78.0937 87.2812 78.0938ZM87.2812 59.7188H69.0354C66.5634 59.7188 64.4417 57.8181 64.3182 55.3461C64.2883 54.725 64.3848 54.1042 64.6019 53.5215C64.8189 52.9388 65.152 52.4062 65.581 51.956C66.01 51.5058 66.5259 51.1474 67.0975 50.9025C67.6691 50.6576 68.2844 50.5313 68.9062 50.5312H87.152C89.6241 50.5312 91.7458 52.4319 91.8693 54.9039C91.8992 55.525 91.8027 56.1458 91.5856 56.7285C91.3686 57.3112 91.0355 57.8438 90.6065 58.294C90.1775 58.7442 89.6616 59.1026 89.09 59.3475C88.5184 59.5924 87.9031 59.7187 87.2812 59.7188ZM87.2812 41.3438H69.0354C66.5634 41.3438 64.4417 39.4431 64.3182 36.9711C64.2883 36.35 64.3848 35.7292 64.6019 35.1465C64.8189 34.5638 65.152 34.0312 65.581 33.581C66.01 33.1308 66.5259 32.7724 67.0975 32.5275C67.6691 32.2826 68.2844 32.1563 68.9062 32.1562H87.152C89.6241 32.1562 91.7458 34.0569 91.8693 36.5289C91.8992 37.15 91.8027 37.7708 91.5856 38.3535C91.3686 38.9362 91.0355 39.4688 90.6065 39.919C90.1775 40.3692 89.6616 40.7276 89.09 40.9725C88.5184 41.2174 87.9031 41.3437 87.2812 41.3438Z" fill="#FFC7C7"/>
</svg>
